<svg xmlns="http://www.w3.org/2000/svg" viewBox="0 0 87.33 48.75"><defs><style>.\32 472b543-4034-4624-9813-e43e5214c100{fill:none;stroke:#fff;stroke-miterlimit:10;stroke-width:2.33px;}</style></defs><title>Asset 2mark</title><g id="86838c1d-ef16-43c4-a5f2-22e642c734bf" data-name="Layer 2"><g id="ae5ecdd5-2e2f-4441-a2f1-8fc865c07632" data-name="Layer 1"><path class="2472b543-4034-4624-9813-e43e5214c100" d="M63.13,1.16V47.59h23V1.16ZM78.65,40.07h-8V8.68h8Z"/><polygon class="2472b543-4034-4624-9813-e43e5214c100" points="47.29 14.9 42.05 19.42 36.81 14.9 36.81 1.17 29.29 1.17 29.29 18.34 36.29 24.38 29.29 30.41 29.29 47.59 36.81 47.59 36.81 33.86 42.05 29.34 47.29 33.86 47.29 47.59 54.8 47.59 54.8 30.41 47.8 24.38 54.8 18.34 54.8 1.17 47.29 1.17 47.29 14.9"/><polygon class="2472b543-4034-4624-9813-e43e5214c100" points="1.17 47.59 20.44 47.59 20.44 40.08 8.68 40.08 8.68 28.14 20.44 28.14 20.44 20.62 8.68 20.62 8.68 8.68 20.44 8.68 20.44 1.17 1.17 1.17 1.17 47.59"/></g></g></svg>